<mxfile><diagram id="j8CoVj6uPyDw3VlZmZUg" name="Page-1"><mxGraphModel dx="1273" dy="1491" grid="1" gridSize="10" guides="1" tooltips="1" connect="1" arrows="1" fold="1" page="1" pageScale="1" pageWidth="827" pageHeight="1169" math="0" shadow="0"><root><mxCell id="0"/><mxCell id="1" parent="0"/><mxCell id="25" value="" style="rounded=0;whiteSpace=wrap;html=1;strokeColor=none;fillColor=#FFFFFF;" vertex="1" parent="1"><mxGeometry width="400" height="320" as="geometry"/></mxCell><mxCell id="23" value="" style="endArrow=none;html=1;strokeColor=#1A1A1A;strokeWidth=2;entryX=0;entryY=0.5;entryDx=0;entryDy=0;" edge="1" parent="1" target="3"><mxGeometry width="50" height="50" relative="1" as="geometry"><mxPoint y="255" as="sourcePoint"/><mxPoint x="170" y="160" as="targetPoint"/></mxGeometry></mxCell><mxCell id="19" value="" style="endArrow=none;html=1;strokeColor=#FF0000;strokeWidth=2;" edge="1" parent="1"><mxGeometry width="50" height="50" relative="1" as="geometry"><mxPoint x="35" y="320" as="sourcePoint"/><mxPoint x="35" as="targetPoint"/></mxGeometry></mxCell><mxCell id="3" value="" style="ellipse;whiteSpace=wrap;html=1;strokeColor=#001DBC;fillColor=#0050ef;fontColor=#ffffff;" vertex="1" parent="1"><mxGeometry x="30" y="250" width="10" height="10" as="geometry"/></mxCell><mxCell id="4" value="" style="ellipse;whiteSpace=wrap;html=1;strokeColor=none;" vertex="1" parent="1"><mxGeometry x="40" y="150" width="10" height="10" as="geometry"/></mxCell><mxCell id="5" value="" style="ellipse;whiteSpace=wrap;html=1;strokeColor=none;" vertex="1" parent="1"><mxGeometry x="90" y="70" width="10" height="10" as="geometry"/></mxCell><mxCell id="6" value="" style="ellipse;whiteSpace=wrap;html=1;strokeColor=none;" vertex="1" parent="1"><mxGeometry x="270" y="280" width="10" height="10" as="geometry"/></mxCell><mxCell id="7" value="" style="ellipse;whiteSpace=wrap;html=1;strokeColor=none;" vertex="1" parent="1"><mxGeometry x="195.88" y="50" width="10" height="10" as="geometry"/></mxCell><mxCell id="8" value="" style="ellipse;whiteSpace=wrap;html=1;strokeColor=none;" vertex="1" parent="1"><mxGeometry x="160" y="130" width="10" height="10" as="geometry"/></mxCell><mxCell id="9" value="" style="ellipse;whiteSpace=wrap;html=1;strokeColor=none;" vertex="1" parent="1"><mxGeometry x="210" y="210" width="10" height="10" as="geometry"/></mxCell><mxCell id="10" value="" style="ellipse;whiteSpace=wrap;html=1;strokeColor=none;" vertex="1" parent="1"><mxGeometry x="280" y="120" width="10" height="10" as="geometry"/></mxCell><mxCell id="11" value="" style="ellipse;whiteSpace=wrap;html=1;strokeColor=none;" vertex="1" parent="1"><mxGeometry x="320" y="30" width="10" height="10" as="geometry"/></mxCell><mxCell id="12" value="" style="ellipse;whiteSpace=wrap;html=1;strokeColor=none;" vertex="1" parent="1"><mxGeometry x="213" y="90" width="10" height="10" as="geometry"/></mxCell><mxCell id="13" value="" style="ellipse;whiteSpace=wrap;html=1;strokeColor=none;" vertex="1" parent="1"><mxGeometry x="340" y="200" width="10" height="10" as="geometry"/></mxCell><mxCell id="15" value="" style="ellipse;whiteSpace=wrap;html=1;strokeColor=none;" vertex="1" parent="1"><mxGeometry x="120" y="210" width="10" height="10" as="geometry"/></mxCell></root></mxGraphModel></diagram></mxfile>